<svg width="56" height="56" viewBox="0 0 56 56" fill="none" xmlns="http://www.w3.org/2000/svg">
<g clip-path="url(#clip0_7_49)">
<mask id="mask0_7_49" style="mask-type:luminance" maskUnits="userSpaceOnUse" x="0" y="0" width="56" height="56">
<path d="M56 0H0V56H56V0Z" fill="white"/>
</mask>
<g mask="url(#mask0_7_49)">
<path fill-rule="evenodd" clip-rule="evenodd" d="M28 9.42057C25.9767 9.42057 24.3365 11.0608 24.3365 13.0841H14.9159C14.9159 5.85796 20.7738 0 28 0C35.2262 0 41.0841 5.85796 41.0841 13.0841C41.0841 20.3103 35.2262 26.1682 28 26.1682V16.7477C30.0233 16.7477 31.6635 15.1074 31.6635 13.0841C31.6635 11.0608 30.0233 9.42057 28 9.42057ZM46.5794 28C46.5794 25.9767 44.9392 24.3365 42.9159 24.3365V14.9159C50.1421 14.9159 56 20.7738 56 28C56 35.2262 50.1421 41.0841 42.9159 41.0841C35.6896 41.0841 29.8318 35.2262 29.8318 28H39.2524C39.2524 30.0233 40.8926 31.6635 42.9159 31.6635C44.9392 31.6635 46.5794 30.0233 46.5794 28ZM13.0841 31.6635C11.0608 31.6635 9.42057 30.0233 9.42057 28C9.42057 25.9767 11.0608 24.3365 13.0841 24.3365C15.1074 24.3365 16.7477 25.9767 16.7477 28H26.1682C26.1682 20.7738 20.3103 14.9159 13.0841 14.9159C5.85796 14.9159 0 20.7738 0 28C0 35.2262 5.85796 41.0841 13.0841 41.0841V31.6635ZM28 46.5794C30.0233 46.5794 31.6635 44.9392 31.6635 42.9159H41.0841C41.0841 50.1421 35.2262 56 28 56C20.7738 56 14.9159 50.1421 14.9159 42.9159C14.9159 35.6896 20.7738 29.8318 28 29.8318V39.2524C25.9767 39.2524 24.3365 40.8926 24.3365 42.9159C24.3365 44.9392 25.9767 46.5794 28 46.5794Z" fill="url(#paint0_linear_7_49)"/>
</g>
</g>
<defs>
<linearGradient id="paint0_linear_7_49" x1="28" y1="0" x2="28" y2="56" gradientUnits="userSpaceOnUse">
<stop stop-color="#FCCB90"/>
<stop offset="1" stop-color="#D57EEB"/>
</linearGradient>
<clipPath id="clip0_7_49">
<rect width="56" height="56" fill="white"/>
</clipPath>
</defs>
</svg>
